<svg xmlns="http://www.w3.org/2000/svg" viewBox="0 0 329.43 53"><defs><style>.cls-1{fill:#005bff;}.cls-2{fill:#001a34;}</style></defs><title>Ozon_id</title><g id="Layer_1" data-name="Layer 1"><path class="cls-1" d="M81.7,93.52A14.14,14.14,0,1,0,65.77,77.66,14.2,14.2,0,0,0,81.7,93.52Zm.86-40.39A26.51,26.51,0,1,1,53.37,82.2,26.65,26.65,0,0,1,82.56,53.13Zm38.05,1h39A1.78,1.78,0,0,1,161,57L134,92.45h21.12a6.2,6.2,0,0,1,6.08,7.46,6.36,6.36,0,0,1-6.32,4.9H112.61A1.76,1.76,0,0,1,111.2,102l27-35.43H120.84a6.35,6.35,0,0,1-6.31-4.91A6.2,6.2,0,0,1,120.61,54.18Zm169.06.14a6.21,6.21,0,0,1,7.56,6V103a1.78,1.78,0,0,1-2.89,1.39L260.73,77.88V98.64a6.2,6.2,0,0,1-7.56,6,6.28,6.28,0,0,1-4.86-6.2V56a1.79,1.79,0,0,1,2.9-1.4l33.61,26.55V60.53A6.29,6.29,0,0,1,289.67,54.32ZM202.17,53c20.57,0,37.25,11.86,37.25,26.49S222.74,106,202.17,106s-37.26-11.87-37.26-26.5S181.59,53,202.17,53Zm0,12.37c-14.22,0-24.84,7.45-24.84,14.12S188,93.62,202.17,93.62,227,86.16,227,79.49,216.38,65.37,202.17,65.37Z" transform="translate(-53.23 -53)"/><path class="cls-2" d="M329.46,104.76h-7.69V54h7.69Z" transform="translate(-53.23 -53)"/><path class="cls-2" d="M382.66,79.36c0,15.82-11,25.4-25.55,25.4h-16.4V54h16.4C371.7,54,382.66,63.54,382.66,79.36Zm-34.4-18.29V97.65H357c9.94,0,17.35-6.32,17.35-18.29S367,61.07,357,61.07Z" transform="translate(-53.23 -53)"/></g></svg>